<svg
  xmlns="http://www.w3.org/2000/svg"
  xmlns:xlink="http://www.w3.org/1999/xlink"
  width="38px" height="30px">
  <path fill-rule="evenodd"  fill="rgb(42, 94, 164)"
        d="M1.425,26.087 L36.575,26.087 C37.362,26.087 37.1000,26.737 37.1000,27.538 L37.1000,28.548 C37.1000,29.350 37.362,29.1000 36.575,29.1000 L1.425,29.1000 C0.638,29.1000 -0.000,29.350 -0.000,28.548 L-0.000,27.538 C-0.000,26.737 0.638,26.087 1.425,26.087 Z"/>
  <path fill-rule="evenodd"  fill="rgb(42, 94, 164)"
        d="M1.425,13.043 L36.575,13.043 C37.362,13.043 37.1000,13.693 37.1000,14.495 L37.1000,15.505 C37.1000,16.306 37.362,16.956 36.575,16.956 L1.425,16.956 C0.638,16.956 -0.000,16.306 -0.000,15.505 L-0.000,14.495 C-0.000,13.693 0.638,13.043 1.425,13.043 Z"/>
  <path fill-rule="evenodd"  fill="rgb(42, 94, 164)"
        d="M1.425,-0.000 L36.575,-0.000 C37.362,-0.000 37.1000,0.650 37.1000,1.451 L37.1000,2.461 C37.1000,3.263 37.362,3.913 36.575,3.913 L1.425,3.913 C0.638,3.913 -0.000,3.263 -0.000,2.461 L-0.000,1.451 C-0.000,0.650 0.638,-0.000 1.425,-0.000 Z"/>
</svg>
