<svg
  xmlns="http://www.w3.org/2000/svg"
  xmlns:xlink="http://www.w3.org/1999/xlink"
  width="55px" height="52px">
  <path fill-rule="evenodd"  fill="rgb(255, 51, 52)"
        d="M50.638,31.666 C51.363,29.362 51.764,26.917 51.764,24.375 C51.764,10.934 40.880,-0.001 27.500,-0.001 C14.120,-0.001 3.235,10.934 3.235,24.375 C3.235,26.917 3.636,29.362 4.362,31.666 C1.711,33.748 -0.000,36.983 -0.000,40.625 C-0.000,46.907 5.069,51.999 11.323,51.999 L12.941,51.999 C14.728,51.999 16.176,50.544 16.176,48.749 L16.176,32.500 C16.176,30.705 14.728,29.250 12.941,29.250 L11.323,29.250 C10.456,29.250 9.616,29.356 8.804,29.541 C8.350,27.893 8.088,26.166 8.088,24.375 C8.088,13.622 16.796,4.875 27.500,4.875 C38.204,4.875 46.912,13.622 46.912,24.375 C46.912,26.166 46.649,27.893 46.196,29.541 C45.384,29.356 44.544,29.250 43.676,29.250 L42.059,29.250 C40.272,29.250 38.823,30.705 38.823,32.500 L38.823,48.749 C38.823,50.544 40.272,51.999 42.059,51.999 L43.676,51.999 C49.930,51.999 54.1000,46.907 54.1000,40.625 C54.1000,36.983 53.289,33.748 50.638,31.666 ZM11.323,47.125 C7.755,47.125 4.853,44.209 4.853,40.625 C4.853,37.040 7.755,34.124 11.323,34.124 L11.323,47.125 ZM43.676,47.125 L43.676,34.124 C47.245,34.124 50.147,37.040 50.147,40.625 C50.147,44.209 47.245,47.125 43.676,47.125 Z"/>
</svg>
