<svg
  xmlns="http://www.w3.org/2000/svg"
  xmlns:xlink="http://www.w3.org/1999/xlink"
  width="55px" height="40px">
  <path fill-rule="evenodd"  fill="rgb(255, 51, 52)"
        d="M54.792,15.826 L48.321,1.426 C47.944,0.586 47.092,-0.001 46.103,-0.001 C44.948,-0.001 43.983,0.797 43.737,1.866 L37.345,29.684 L28.936,9.487 C28.573,8.614 27.704,7.1000 26.691,7.1000 C25.690,7.1000 24.831,8.599 24.461,9.456 L16.817,27.098 L12.687,18.929 C12.289,18.141 11.466,17.600 10.515,17.600 C9.766,17.600 9.095,17.936 8.651,18.464 L0.563,28.064 C0.212,28.481 0.000,29.015 0.000,29.599 C0.000,30.924 1.087,31.999 2.427,31.999 C3.175,31.999 3.847,31.663 4.291,31.135 L10.003,24.356 L14.813,33.871 C15.212,34.659 16.035,35.199 16.986,35.199 C17.987,35.199 18.846,34.600 19.216,33.743 L26.646,16.596 L35.770,38.512 C36.134,39.386 37.002,39.1000 38.015,39.1000 C39.170,39.1000 40.135,39.201 40.381,38.134 L46.852,9.975 L50.356,17.773 C50.733,18.613 51.585,19.200 52.574,19.200 C53.913,19.200 55.000,18.124 55.000,16.799 C55.000,16.454 54.926,16.124 54.792,15.826 Z"/>
</svg>
