<svg
  xmlns="http://www.w3.org/2000/svg"
  xmlns:xlink="http://www.w3.org/1999/xlink"
  width="47px" height="47px">
  <path fill-rule="evenodd"  fill="rgb(255, 51, 52)"
        d="M23.500,-0.001 C10.522,-0.001 -0.000,10.520 -0.000,23.500 C-0.000,36.478 10.522,46.1000 23.500,46.1000 C36.478,46.1000 46.1000,36.478 46.1000,23.500 C46.1000,10.520 36.478,-0.001 23.500,-0.001 ZM13.500,7.266 L18.553,18.104 C18.397,18.247 18.247,18.396 18.104,18.552 L7.266,13.498 C8.832,10.967 10.967,8.831 13.500,7.266 ZM23.500,26.437 C21.879,26.437 20.562,25.119 20.562,23.500 C20.562,21.880 21.879,20.562 23.500,20.562 C25.121,20.562 26.437,21.880 26.437,23.500 C26.437,25.119 25.121,26.437 23.500,26.437 ZM23.500,42.593 C12.972,42.593 4.406,34.027 4.406,23.500 C4.406,21.397 4.762,19.379 5.392,17.485 L16.252,22.550 C16.211,22.864 16.156,23.174 16.156,23.500 C16.156,27.556 19.444,30.843 23.500,30.843 C23.824,30.843 24.134,30.789 24.448,30.747 L29.513,41.608 C27.619,42.239 25.603,42.593 23.500,42.593 ZM33.500,39.734 L28.445,28.895 C28.603,28.752 28.752,28.603 28.896,28.445 L39.733,33.500 C38.169,36.033 36.033,38.168 33.500,39.734 ZM30.749,24.446 C30.789,24.133 30.844,23.824 30.844,23.500 C30.844,19.443 27.556,16.156 23.500,16.156 C23.176,16.156 22.865,16.210 22.550,16.252 L17.486,5.391 C19.379,4.760 21.397,4.406 23.500,4.406 C34.028,4.406 42.594,12.972 42.594,23.500 C42.594,25.602 42.239,27.619 41.610,29.512 L30.749,24.446 Z"/>
</svg>
