<svg
  xmlns="http://www.w3.org/2000/svg"
  xmlns:xlink="http://www.w3.org/1999/xlink"
  width="50px" height="51px">
  <path fill-rule="evenodd"  fill="rgb(255, 51, 52)"
        d="M24.1000,50.1000 C11.214,50.1000 -0.000,39.918 -0.000,26.297 C-0.000,18.216 4.035,10.630 10.796,6.003 C11.194,5.731 11.647,5.594 12.098,5.581 C12.891,5.556 13.678,5.917 14.162,6.606 C14.922,7.693 14.649,9.183 13.551,9.934 C8.095,13.668 4.839,19.785 4.839,26.297 C4.839,37.282 13.883,46.218 24.1000,46.218 C36.117,46.218 45.161,37.282 45.161,26.297 C45.161,19.785 41.905,13.668 36.449,9.934 C35.351,9.183 35.077,7.693 35.838,6.606 C36.312,5.930 37.080,5.570 37.857,5.579 C38.324,5.584 38.793,5.721 39.204,6.003 C45.964,10.630 49.1000,18.216 49.1000,26.297 C49.1000,39.918 38.785,50.1000 24.1000,50.1000 ZM24.1000,19.125 C23.664,19.125 22.580,18.054 22.580,16.734 L22.580,2.390 C22.580,1.071 23.664,-0.000 24.1000,-0.000 C26.336,-0.000 27.419,1.071 27.419,2.390 L27.419,16.734 C27.419,18.054 26.336,19.125 24.1000,19.125 Z"/>
</svg>
