<svg
  xmlns="http://www.w3.org/2000/svg"
  xmlns:xlink="http://www.w3.org/1999/xlink"
  width="54px" height="54px">
  <path fill-rule="evenodd"  fill="rgb(255, 51, 52)"
        d="M47.617,42.452 C47.121,42.950 46.472,43.199 45.821,43.199 C45.177,43.199 44.531,42.953 44.036,42.464 C43.046,41.479 43.039,39.875 44.025,38.883 C47.192,35.696 48.937,31.475 48.937,26.1000 C48.937,22.524 47.192,18.303 44.025,15.116 C43.039,14.124 43.046,12.521 44.036,11.535 C44.531,11.046 45.177,10.800 45.821,10.800 C46.472,10.800 47.121,11.049 47.617,11.547 C51.732,15.691 53.1000,21.179 53.1000,26.1000 C53.1000,32.820 51.732,38.308 47.617,42.452 ZM39.638,36.055 C39.163,36.452 38.587,36.647 38.013,36.647 C37.290,36.647 36.571,36.339 36.072,35.742 C35.174,34.669 35.314,33.074 36.385,32.176 C37.927,30.884 38.812,28.997 38.812,26.1000 C38.812,25.002 37.927,23.115 36.385,21.824 C35.314,20.925 35.174,19.330 36.072,18.257 C36.571,17.660 37.290,17.352 38.013,17.352 C38.587,17.352 39.163,17.547 39.638,17.944 C42.331,20.200 43.875,23.501 43.875,26.1000 C43.875,30.498 42.331,33.799 39.638,36.055 ZM26.1000,53.999 L23.625,53.999 L11.812,42.187 L3.375,42.187 C1.511,42.187 -0.000,40.676 -0.000,38.812 L-0.000,15.187 C-0.000,13.323 1.511,11.812 3.375,11.812 L11.812,11.812 L23.625,-0.001 L26.1000,-0.001 C28.864,-0.001 30.375,1.511 30.375,3.375 L30.375,50.625 C30.375,52.488 28.864,53.999 26.1000,53.999 ZM25.312,5.471 L13.909,16.875 L5.062,16.875 L5.062,37.125 L13.909,37.125 L25.312,48.528 L25.312,5.471 Z"/>
</svg>
